<svg xmlns="http://www.w3.org/2000/svg" width="24" height="24" viewBox="0 0 24 24" fill="none">
  <rect width="24" height="24" rx="6.5" fill="rgb(32, 48, 81)"/>
  <path d="M13.82 5.63c-.425-.123-.868.125-.99.55l-3.2 11.2c-.123.425.125.868.55.99s.868-.125.99-.55l3.2-11.2c.123-.425-.125-.868-.55-.99zm1.615 3.403c-.313.313-.313.82 0 1.133l1.835 1.835-1.835 1.835c-.313.313-.313.82 0 1.133s.82.313 1.133 0l2.4-2.4c.313-.313.313-.82 0-1.133l-2.4-2.4c-.313-.313-.82-.313-1.133 0zm-6.868 0c-.313-.313-.82-.313-1.133 0l-2.4 2.4c-.313.313-.313.82 0 1.133l2.4 2.4c.313.313.82.313 1.133 0s.313-.82 0-1.133L6.733 12L8.565 10.165c.313-.313.313-.82 0-1.133z" fill="#FFFFFF"/>
</svg>